# MagicaVoxel @ Ephtracy

# group
o 

# material
mtllib green.mtl
usemtl palette

# normals
vn -1 0 0
vn 1 0 0
vn 0 0 1
vn 0 0 -1
vn 0 -1 0
vn 0 1 0

# texcoords
vt 0.970703 0.5
vt 0.978516 0.5
vt 0.982422 0.5

# verts
v 0.3 0 0
v 0.3 0 -0.1
v 0.3 0 -0.5
v 0.3 0 -0.6
v 0.3 0.2 -0.1
v 0.3 0.2 -0.5
v 0.3 0.3 0
v 0.3 0.3 -0.1
v 0.3 0.3 -0.5
v 0.3 0.3 -0.6
v 0.3 0.4 0
v 0.3 0.4 -0.1
v 0.3 0.4 -0.5
v 0.3 0.4 -0.6
v 0.4 0 0
v 0.4 0 -0.1
v 0.4 0 -0.5
v 0.4 0 -0.6
v 0.4 0.2 -0.1
v 0.4 0.2 -0.5
v 0.4 0.3 0
v 0.4 0.3 -0.1
v 0.4 0.3 -0.5
v 0.4 0.3 -0.6
v 0.4 0.4 0
v 0.4 0.4 -0.1
v 0.4 0.4 -0.5
v 0.4 0.4 -0.6
v 0.3 0 0
v 0.3 0.3 0
v 0.3 0.4 0
v 0.4 0 0
v 0.4 0.3 0
v 0.4 0.4 0
v 0.3 0 -0.5
v 0.3 0.2 -0.5
v 0.3 0.3 -0.5
v 0.3 0.4 -0.5
v 0.4 0 -0.5
v 0.4 0.2 -0.5
v 0.4 0.3 -0.5
v 0.4 0.4 -0.5
v 0.3 0 -0.1
v 0.3 0.2 -0.1
v 0.3 0.3 -0.1
v 0.3 0.4 -0.1
v 0.4 0 -0.1
v 0.4 0.2 -0.1
v 0.4 0.3 -0.1
v 0.4 0.4 -0.1
v 0.3 0 -0.6
v 0.3 0.3 -0.6
v 0.3 0.4 -0.6
v 0.4 0 -0.6
v 0.4 0.3 -0.6
v 0.4 0.4 -0.6
v 0.3 0 0
v 0.4 0 0
v 0.3 0 -0.1
v 0.4 0 -0.1
v 0.3 0 -0.5
v 0.4 0 -0.5
v 0.3 0 -0.6
v 0.4 0 -0.6
v 0.3 0.2 -0.1
v 0.4 0.2 -0.1
v 0.3 0.2 -0.5
v 0.4 0.2 -0.5
v 0.3 0.3 -0.1
v 0.4 0.3 -0.1
v 0.3 0.3 -0.5
v 0.4 0.3 -0.5
v 0.3 0.4 0
v 0.4 0.4 0
v 0.3 0.4 -0.1
v 0.4 0.4 -0.1
v 0.3 0.4 -0.5
v 0.4 0.4 -0.5
v 0.3 0.4 -0.6
v 0.4 0.4 -0.6

# faces
f 5/1/1 2/1/1 1/1/1
f 6/1/1 4/1/1 3/1/1
f 7/1/1 5/1/1 1/1/1
f 8/3/1 6/3/1 5/3/1
f 8/1/1 5/1/1 7/1/1
f 9/1/1 4/1/1 6/1/1
f 9/3/1 6/3/1 8/3/1
f 10/1/1 4/1/1 9/1/1
f 11/2/1 8/2/1 7/2/1
f 12/2/1 8/2/1 11/2/1
f 13/2/1 10/2/1 9/2/1
f 14/2/1 10/2/1 13/2/1
f 15/1/2 16/1/2 19/1/2
f 17/1/2 18/1/2 20/1/2
f 15/1/2 19/1/2 21/1/2
f 19/3/2 20/3/2 22/3/2
f 21/1/2 19/1/2 22/1/2
f 20/1/2 18/1/2 23/1/2
f 22/3/2 20/3/2 23/3/2
f 23/1/2 18/1/2 24/1/2
f 21/2/2 22/2/2 25/2/2
f 25/2/2 22/2/2 26/2/2
f 23/2/2 24/2/2 27/2/2
f 27/2/2 24/2/2 28/2/2
f 32/1/3 30/1/3 29/1/3
f 33/2/3 31/2/3 30/2/3
f 33/1/3 30/1/3 32/1/3
f 34/2/3 31/2/3 33/2/3
f 39/1/3 36/1/3 35/1/3
f 40/1/3 36/1/3 39/1/3
f 41/2/3 38/2/3 37/2/3
f 42/2/3 38/2/3 41/2/3
f 43/1/4 44/1/4 47/1/4
f 47/1/4 44/1/4 48/1/4
f 45/2/4 46/2/4 49/2/4
f 49/2/4 46/2/4 50/2/4
f 51/1/4 52/1/4 54/1/4
f 52/2/4 53/2/4 55/2/4
f 54/1/4 52/1/4 55/1/4
f 55/2/4 53/2/4 56/2/4
f 59/1/5 58/1/5 57/1/5
f 60/1/5 58/1/5 59/1/5
f 63/1/5 62/1/5 61/1/5
f 64/1/5 62/1/5 63/1/5
f 67/3/5 66/3/5 65/3/5
f 68/3/5 66/3/5 67/3/5
f 69/3/6 70/3/6 71/3/6
f 71/3/6 70/3/6 72/3/6
f 73/2/6 74/2/6 75/2/6
f 75/2/6 74/2/6 76/2/6
f 77/2/6 78/2/6 79/2/6
f 79/2/6 78/2/6 80/2/6
