# MagicaVoxel @ Ephtracy

# group
o 

# material
mtllib red.mtl
usemtl palette

# normals
vn -1 0 0
vn 1 0 0
vn 0 0 1
vn 0 0 -1
vn 0 -1 0
vn 0 1 0

# texcoords
vt 0.970703 0.5
vt 0.974609 0.5
vt 0.978516 0.5

# verts
v 0.3 0 0
v 0.3 0 -0.1
v 0.3 0 -0.5
v 0.3 0 -0.6
v 0.3 0.2 -0.1
v 0.3 0.2 -0.5
v 0.3 0.3 0
v 0.3 0.3 -0.1
v 0.3 0.3 -0.5
v 0.3 0.3 -0.6
v 0.3 0.4 0
v 0.3 0.4 -0.1
v 0.3 0.4 -0.5
v 0.3 0.4 -0.6
v 0.4 0 0
v 0.4 0 -0.1
v 0.4 0 -0.5
v 0.4 0 -0.6
v 0.4 0.2 -0.1
v 0.4 0.2 -0.5
v 0.4 0.3 0
v 0.4 0.3 -0.1
v 0.4 0.3 -0.5
v 0.4 0.3 -0.6
v 0.4 0.4 0
v 0.4 0.4 -0.1
v 0.4 0.4 -0.5
v 0.4 0.4 -0.6
v 0.3 0 0
v 0.3 0.3 0
v 0.3 0.4 0
v 0.4 0 0
v 0.4 0.3 0
v 0.4 0.4 0
v 0.3 0 -0.5
v 0.3 0.2 -0.5
v 0.3 0.3 -0.5
v 0.3 0.4 -0.5
v 0.4 0 -0.5
v 0.4 0.2 -0.5
v 0.4 0.3 -0.5
v 0.4 0.4 -0.5
v 0.3 0 -0.1
v 0.3 0.2 -0.1
v 0.3 0.3 -0.1
v 0.3 0.4 -0.1
v 0.4 0 -0.1
v 0.4 0.2 -0.1
v 0.4 0.3 -0.1
v 0.4 0.4 -0.1
v 0.3 0 -0.6
v 0.3 0.3 -0.6
v 0.3 0.4 -0.6
v 0.4 0 -0.6
v 0.4 0.3 -0.6
v 0.4 0.4 -0.6
v 0.3 0 0
v 0.4 0 0
v 0.3 0 -0.1
v 0.4 0 -0.1
v 0.3 0 -0.5
v 0.4 0 -0.5
v 0.3 0 -0.6
v 0.4 0 -0.6
v 0.3 0.2 -0.1
v 0.4 0.2 -0.1
v 0.3 0.2 -0.5
v 0.4 0.2 -0.5
v 0.3 0.3 -0.1
v 0.4 0.3 -0.1
v 0.3 0.3 -0.5
v 0.4 0.3 -0.5
v 0.3 0.4 0
v 0.4 0.4 0
v 0.3 0.4 -0.1
v 0.4 0.4 -0.1
v 0.3 0.4 -0.5
v 0.4 0.4 -0.5
v 0.3 0.4 -0.6
v 0.4 0.4 -0.6

# faces
f 5/1/1 2/1/1 1/1/1
f 6/1/1 4/1/1 3/1/1
f 7/1/1 5/1/1 1/1/1
f 8/2/1 6/2/1 5/2/1
f 8/1/1 5/1/1 7/1/1
f 9/1/1 4/1/1 6/1/1
f 9/2/1 6/2/1 8/2/1
f 10/1/1 4/1/1 9/1/1
f 11/3/1 8/3/1 7/3/1
f 12/3/1 8/3/1 11/3/1
f 13/3/1 10/3/1 9/3/1
f 14/3/1 10/3/1 13/3/1
f 15/1/2 16/1/2 19/1/2
f 17/1/2 18/1/2 20/1/2
f 15/1/2 19/1/2 21/1/2
f 19/2/2 20/2/2 22/2/2
f 21/1/2 19/1/2 22/1/2
f 20/1/2 18/1/2 23/1/2
f 22/2/2 20/2/2 23/2/2
f 23/1/2 18/1/2 24/1/2
f 21/3/2 22/3/2 25/3/2
f 25/3/2 22/3/2 26/3/2
f 23/3/2 24/3/2 27/3/2
f 27/3/2 24/3/2 28/3/2
f 32/1/3 30/1/3 29/1/3
f 33/3/3 31/3/3 30/3/3
f 33/1/3 30/1/3 32/1/3
f 34/3/3 31/3/3 33/3/3
f 39/1/3 36/1/3 35/1/3
f 40/1/3 36/1/3 39/1/3
f 41/3/3 38/3/3 37/3/3
f 42/3/3 38/3/3 41/3/3
f 43/1/4 44/1/4 47/1/4
f 47/1/4 44/1/4 48/1/4
f 45/3/4 46/3/4 49/3/4
f 49/3/4 46/3/4 50/3/4
f 51/1/4 52/1/4 54/1/4
f 52/3/4 53/3/4 55/3/4
f 54/1/4 52/1/4 55/1/4
f 55/3/4 53/3/4 56/3/4
f 59/1/5 58/1/5 57/1/5
f 60/1/5 58/1/5 59/1/5
f 63/1/5 62/1/5 61/1/5
f 64/1/5 62/1/5 63/1/5
f 67/2/5 66/2/5 65/2/5
f 68/2/5 66/2/5 67/2/5
f 69/2/6 70/2/6 71/2/6
f 71/2/6 70/2/6 72/2/6
f 73/3/6 74/3/6 75/3/6
f 75/3/6 74/3/6 76/3/6
f 77/3/6 78/3/6 79/3/6
f 79/3/6 78/3/6 80/3/6
